<?xml version="1.0" encoding="utf-8"?>
<!-- Generator: Adobe Illustrator 16.0.0, SVG Export Plug-In . SVG Version: 6.00 Build 0)  -->
<!DOCTYPE svg PUBLIC "-//W3C//DTD SVG 1.1//EN" "http://www.w3.org/Graphics/SVG/1.1/DTD/svg11.dtd">
<svg version="1.1" id="Layer_1" xmlns="http://www.w3.org/2000/svg" xmlns:xlink="http://www.w3.org/1999/xlink" x="0px" y="0px"
	 width="212.795px" height="73.874px" viewBox="0 0 212.795 73.874" enable-background="new 0 0 212.795 73.874"
	 xml:space="preserve">
<g>
	<defs>
		<rect id="SVGID_1_" x="-8.817" width="240.721" height="75.541"/>
	</defs>
	<clipPath id="SVGID_2_">
		<use xlink:href="#SVGID_1_"  overflow="visible"/>
	</clipPath>
	<path clip-path="url(#SVGID_2_)" fill="#EE2D30" d="M200.645,48.104c0-1.554,0.194-2.508,0.583-2.862
		c0.389-0.354,0.764-0.531,1.124-0.531c0.598,0,1.023,0.229,1.28,0.688s0.386,1.43,0.386,2.915v6.099
		c0,1.235-0.136,2.064-0.405,2.488c-0.271,0.423-0.698,0.634-1.281,0.634c-0.388,0-0.768-0.166-1.134-0.499
		c-0.368-0.333-0.553-1.208-0.553-2.623V48.104z M193.224,70.169c0.659,1.389,1.742,2.465,3.248,3.228
		c1.505,0.763,3.445,1.145,5.818,1.145c1.915,0,3.601-0.302,5.058-0.905c1.457-0.604,2.613-1.51,3.466-2.717
		c0.854-1.208,1.337-2.487,1.447-3.841c0.111-1.353,0.166-4.035,0.166-8.046v-4.684c0-3.705-0.062-6.203-0.187-7.494
		c-0.125-1.29-0.583-2.522-1.374-3.694c-0.791-1.173-1.908-2.072-3.352-2.695c-1.443-0.625-3.289-0.938-5.537-0.938
		c-1.818,0-3.414,0.271-4.788,0.812s-2.449,1.301-3.227,2.278c-0.777,0.979-1.259,2.044-1.447,3.196
		c-0.187,1.152-0.28,2.907-0.28,5.266v2.687c0,1.983,0.159,3.559,0.479,4.725s1.069,2.165,2.248,2.998
		c1.18,0.832,2.54,1.249,4.08,1.249c1.235,0,2.269-0.226,3.102-0.677s1.457-1.127,1.874-2.03v5.371c0,1.263-0.018,2.104-0.052,2.52
		c-0.035,0.416-0.19,0.756-0.469,1.02s-0.632,0.395-1.062,0.395c-0.513,0-0.919-0.138-1.217-0.415
		c-0.299-0.277-0.469-0.621-0.51-1.03c-0.042-0.409-0.063-1.398-0.063-2.967h-8.409C192.236,67.033,192.565,68.782,193.224,70.169
		 M171.375,40.172l-0.354,16.987h8.326c0-0.984,0.038-1.613,0.115-1.884c0.076-0.271,0.246-0.524,0.51-0.76
		c0.264-0.236,0.589-0.354,0.979-0.354c0.61,0,1.048,0.229,1.311,0.688c0.265,0.458,0.396,1.318,0.396,2.581v6.682
		c-0.028,2.346-0.053,3.671-0.073,3.977c-0.021,0.306-0.16,0.59-0.416,0.854c-0.257,0.264-0.593,0.395-1.01,0.395
		c-0.902,0-1.43-0.458-1.582-1.372c-0.153-0.916-0.229-2.465-0.229-4.644v-2.102h-8.41v1.832c0,3.136,0.348,5.454,1.041,6.952
		c0.694,1.498,1.866,2.627,3.519,3.383c1.65,0.757,3.56,1.135,5.725,1.135c1.929,0,3.563-0.254,4.902-0.76s2.383-1.235,3.133-2.187
		c0.749-0.95,1.238-1.983,1.467-3.101c0.229-1.117,0.345-2.87,0.345-5.257v-4.809c0-3.691-0.594-6.186-1.78-7.483
		s-2.939-1.946-5.256-1.946c-2.055,0-3.733,0.77-5.038,2.31v-5.724h10.429v-5.393H171.375z M164.546,40.172
		c-2.11,2.724-5.197,4.522-9.264,5.397v3.929h0.833c1.942,0,3.195,0.137,3.758,0.406c0.562,0.271,0.905,0.67,1.03,1.197
		c0.125,0.528,0.187,2.096,0.187,4.705v18.067h8.41V40.172H164.546z M134.484,40.172v6.059h8.316l-5.985,27.644h8.368l5.371-26.358
		v-7.344H134.484z M129.215,40.172c-2.11,2.724-5.197,4.522-9.263,5.397v3.929h0.832c1.942,0,3.195,0.137,3.758,0.406
		c0.562,0.271,0.905,0.67,1.03,1.197c0.125,0.528,0.188,2.096,0.188,4.705v18.067h8.409V40.172H129.215z M104.026,40.172v6.059
		h8.316l-5.985,27.644h8.368l5.371-26.358v-7.344H104.026z M86.495,48.104c0-1.554,0.195-2.508,0.583-2.862
		c0.389-0.354,0.763-0.531,1.124-0.531c0.597,0,1.024,0.229,1.281,0.688c0.256,0.458,0.385,1.43,0.385,2.915v6.099
		c0,1.235-0.136,2.064-0.406,2.488c-0.271,0.423-0.698,0.634-1.281,0.634c-0.388,0-0.766-0.166-1.134-0.499
		s-0.552-1.208-0.552-2.623V48.104z M79.073,70.169c0.659,1.389,1.742,2.465,3.248,3.228c1.505,0.763,3.445,1.145,5.818,1.145
		c1.915,0,3.601-0.302,5.058-0.905c1.457-0.604,2.613-1.51,3.466-2.717c0.854-1.208,1.336-2.487,1.447-3.841
		c0.11-1.353,0.167-4.035,0.167-8.046v-4.684c0-3.705-0.063-6.203-0.188-7.494c-0.125-1.29-0.583-2.522-1.374-3.694
		c-0.791-1.173-1.908-2.072-3.351-2.695c-1.444-0.625-3.289-0.938-5.537-0.938c-1.819,0-3.414,0.271-4.788,0.812
		s-2.45,1.301-3.227,2.278c-0.777,0.979-1.259,2.044-1.447,3.196c-0.187,1.152-0.281,2.907-0.281,5.266v2.687
		c0,1.983,0.16,3.559,0.479,4.725s1.069,2.165,2.248,2.998c1.18,0.832,2.54,1.249,4.08,1.249c1.235,0,2.269-0.226,3.102-0.677
		c0.833-0.451,1.457-1.127,1.874-2.03v5.371c0,1.263-0.018,2.104-0.052,2.52c-0.035,0.416-0.191,0.756-0.469,1.02
		c-0.278,0.264-0.631,0.395-1.061,0.395c-0.514,0-0.92-0.138-1.218-0.415c-0.299-0.277-0.469-0.621-0.51-1.03
		c-0.042-0.409-0.063-1.398-0.063-2.967h-8.41C78.084,67.033,78.415,68.782,79.073,70.169 M67.299,68.13
		c4.719-6.98,7.56-11.547,8.525-13.697c0.965-2.151,1.447-4.191,1.447-6.12c0-2.54-0.857-4.639-2.571-6.297
		c-1.714-1.659-4.243-2.488-7.588-2.488c-1.707,0-3.171,0.271-4.392,0.812c-1.221,0.541-2.214,1.338-2.977,2.394
		c-0.763,1.055-1.242,2.127-1.436,3.216c-0.195,1.09-0.291,2.578-0.291,4.465v1.229h7.535v-3.205c0-1.485,0.156-2.479,0.469-2.978
		c0.313-0.5,0.789-0.75,1.428-0.75c0.639,0,1.115,0.227,1.428,0.678s0.469,1.134,0.469,2.05c0,1.194-0.517,2.855-1.551,4.986
		c-1.034,2.13-4.292,7.678-9.773,16.643l-0.005,4.808h18.506V68.13H67.299z M45.42,48.104c0-1.554,0.194-2.508,0.583-2.862
		c0.388-0.354,0.763-0.531,1.124-0.531c0.596,0,1.023,0.229,1.28,0.688c0.257,0.458,0.385,1.43,0.385,2.915v6.099
		c0,1.235-0.135,2.064-0.406,2.488c-0.27,0.423-0.697,0.634-1.28,0.634c-0.389,0-0.767-0.166-1.135-0.499
		c-0.367-0.333-0.551-1.208-0.551-2.623V48.104z M38,70.169c0.659,1.389,1.741,2.465,3.247,3.228
		c1.506,0.763,3.445,1.145,5.818,1.145c1.915,0,3.602-0.302,5.059-0.905c1.457-0.604,2.612-1.51,3.466-2.717
		c0.853-1.208,1.335-2.487,1.446-3.841c0.111-1.353,0.167-4.035,0.167-8.046v-4.684c0-3.705-0.062-6.203-0.187-7.494
		c-0.125-1.29-0.583-2.522-1.374-3.694c-0.791-1.173-1.909-2.072-3.352-2.695c-1.443-0.625-3.289-0.938-5.537-0.938
		c-1.818,0-3.414,0.271-4.788,0.812s-2.449,1.301-3.226,2.278c-0.778,0.979-1.26,2.044-1.447,3.196s-0.281,2.907-0.281,5.266v2.687
		c0,1.983,0.159,3.559,0.479,4.725c0.319,1.166,1.068,2.165,2.248,2.998c1.179,0.832,2.539,1.249,4.08,1.249
		c1.235,0,2.269-0.226,3.102-0.677c0.832-0.451,1.457-1.127,1.873-2.03v5.371c0,1.263-0.017,2.104-0.052,2.52
		c-0.035,0.416-0.191,0.756-0.468,1.02c-0.278,0.264-0.632,0.395-1.062,0.395c-0.514,0-0.919-0.138-1.218-0.415
		c-0.298-0.277-0.468-0.621-0.51-1.03c-0.041-0.409-0.062-1.398-0.062-2.967h-8.41C37.01,67.033,37.339,68.782,38,70.169
		 M20.771,40.172v6.059h8.316l-5.984,27.644h8.368l5.371-26.358v-7.344H20.771z M12.297,65.444c0,1.651-0.097,2.713-0.291,3.186
		c-0.195,0.472-0.604,0.706-1.228,0.706c-0.625,0-1.031-0.2-1.218-0.603c-0.188-0.403-0.281-1.582-0.281-3.539V48.749
		c0-1.734,0.1-2.842,0.302-3.319c0.201-0.479,0.614-0.72,1.238-0.72c0.638,0,1.044,0.227,1.218,0.678
		c0.173,0.451,0.26,1.571,0.26,3.361V65.444z M20.322,46.001c-0.257-1.166-0.746-2.213-1.468-3.143
		c-0.721-0.931-1.811-1.718-3.268-2.362c-1.457-0.646-3.109-0.969-4.954-0.969c-2.262,0-4.188,0.465-5.777,1.395
		c-1.589,0.931-2.651,2.166-3.185,3.705C1.136,46.168,0.87,48.485,0.87,51.58v11.762c0,2.373,0.166,4.104,0.499,5.193
		c0.334,1.09,0.896,2.127,1.687,3.112c0.791,0.986,1.852,1.711,3.185,2.175c1.332,0.465,3.004,0.698,5.016,0.698
		c1.527,0,2.908-0.222,4.143-0.666s2.29-1.173,3.164-2.187c0.874-1.013,1.45-2.103,1.728-3.268c0.277-1.166,0.416-3.026,0.416-5.579
		V51.58C20.708,49.027,20.58,47.167,20.322,46.001"/>
	<path clip-path="url(#SVGID_2_)" fill="#FFFFFF" d="M207.002,8.56v11.999L203.118,8.56h-5.794v26.649h5.794V23.094l3.604,12.115
		h6.073V8.56H207.002z M189.159,27.654c0,1.569-0.066,2.562-0.197,2.979c-0.132,0.417-0.434,0.625-0.906,0.625
		c-0.461,0-0.754-0.181-0.88-0.543c-0.127-0.362-0.189-1.317-0.189-2.864V15.408c0-1.372,0.096-2.198,0.288-2.478
		c0.191-0.279,0.469-0.419,0.832-0.419c0.428,0,0.71,0.173,0.847,0.518c0.137,0.346,0.206,1.139,0.206,2.379V27.654z
		 M196.088,19.604c0-2.743-0.065-4.664-0.198-5.761c-0.132-1.097-0.543-2.112-1.233-3.045c-0.692-0.933-1.605-1.632-2.741-2.099
		C190.78,8.233,189.499,8,188.073,8c-1.504,0-2.821,0.247-3.951,0.74c-1.13,0.494-2.027,1.202-2.691,2.124
		c-0.664,0.921-1.059,1.939-1.185,3.053c-0.126,1.114-0.189,3.01-0.189,5.687v4.559c0,2.744,0.066,4.664,0.197,5.761
		c0.132,1.097,0.544,2.113,1.235,3.045c0.69,0.933,1.604,1.632,2.739,2.099c1.137,0.466,2.418,0.699,3.845,0.699
		c1.503,0,2.819-0.247,3.95-0.74c1.13-0.494,2.026-1.202,2.69-2.124c0.664-0.922,1.06-1.939,1.186-3.053
		c0.126-1.114,0.189-3.009,0.189-5.687V19.604z M169.458,8.56c-0.902,4.158-1.546,7.658-1.93,10.502
		c-0.127-1.8-0.688-5.3-1.684-10.502h-6.364l4.871,17.003v9.646h6.42v-9.646l5.053-17.003H169.458z M153.235,25.695
		c0.181-2.359,0.624-6.09,1.33-11.193c0.353,4.444,0.704,8.175,1.056,11.193H153.235z M149.277,8.56l-3.534,26.649h7.164l0.416-4.79
		h2.479l0.372,4.79h7.082L159.292,8.56H149.277z M138.506,13.357c0.275,0.16,0.45,0.409,0.527,0.749
		c0.077,0.341,0.115,1.114,0.115,2.321v10.353c0,1.778-0.115,2.867-0.346,3.267c-0.23,0.401-0.845,0.601-1.844,0.601V13.12
		C137.716,13.12,138.233,13.199,138.506,13.357 M130.031,35.208h8.739c1.656,0,2.897-0.091,3.721-0.272
		c0.823-0.181,1.514-0.499,2.074-0.955c0.559-0.455,0.95-1.086,1.176-1.893c0.225-0.806,0.338-2.405,0.338-4.798v-9.332
		c0-2.524-0.077-4.216-0.231-5.078c-0.152-0.861-0.537-1.643-1.151-2.345c-0.614-0.703-1.513-1.207-2.691-1.515
		c-1.18-0.307-3.443-0.461-6.79-0.461h-5.184V35.208z M121.865,27.654c0,1.569-0.066,2.562-0.197,2.979
		c-0.132,0.417-0.434,0.625-0.905,0.625c-0.461,0-0.755-0.181-0.881-0.543c-0.126-0.362-0.188-1.317-0.188-2.864V15.408
		c0-1.372,0.096-2.198,0.288-2.478c0.191-0.279,0.469-0.419,0.83-0.419c0.429,0,0.711,0.173,0.849,0.518
		c0.137,0.346,0.205,1.139,0.205,2.379V27.654z M128.794,19.604c0-2.743-0.066-4.664-0.198-5.761
		c-0.131-1.097-0.543-2.112-1.233-3.045c-0.691-0.933-1.605-1.632-2.741-2.099C123.487,8.233,122.205,8,120.779,8
		c-1.504,0-2.82,0.247-3.95,0.74c-1.131,0.494-2.028,1.202-2.691,2.124c-0.665,0.921-1.06,1.939-1.186,3.053
		c-0.126,1.114-0.189,3.01-0.189,5.687v4.559c0,2.744,0.066,4.664,0.198,5.761c0.131,1.097,0.543,2.113,1.234,3.045
		c0.69,0.933,1.604,1.632,2.74,2.099c1.136,0.466,2.416,0.699,3.844,0.699c1.503,0,2.819-0.247,3.949-0.74
		c1.131-0.494,2.027-1.202,2.691-2.124c0.664-0.922,1.059-1.939,1.187-3.053c0.126-1.114,0.188-3.009,0.188-5.687V19.604z
		 M97.585,8.56v5.333h4.098v21.316h6.931V13.893h4.114V8.56H97.585z M92.776,15.572c0-2.117-0.206-3.618-0.617-4.502
		c-0.412-0.883-1.251-1.615-2.518-2.197C88.374,8.292,86.84,8,85.041,8c-1.646,0-3.051,0.266-4.214,0.798
		c-1.163,0.532-2.005,1.27-2.526,2.214s-0.782,2.436-0.782,4.477c0,1.415,0.184,2.579,0.551,3.489
		c0.368,0.911,0.832,1.624,1.391,2.14c0.56,0.516,1.701,1.344,3.424,2.486c1.722,1.13,2.803,1.936,3.242,2.419
		c0.428,0.483,0.642,1.509,0.642,3.078c0,0.713-0.112,1.251-0.337,1.613c-0.225,0.362-0.568,0.543-1.029,0.543
		s-0.782-0.142-0.963-0.428c-0.181-0.285-0.271-0.927-0.271-1.925v-3.243h-6.436v1.745c0,1.997,0.203,3.539,0.609,4.625
		c0.406,1.086,1.265,1.981,2.576,2.683c1.311,0.702,2.894,1.053,4.749,1.053c1.689,0,3.171-0.304,4.444-0.913
		c1.272-0.609,2.131-1.364,2.576-2.264c0.444-0.899,0.666-2.298,0.666-4.197c0-2.611-0.4-4.504-1.201-5.678
		c-0.801-1.174-2.744-2.677-5.829-4.508c-1.076-0.635-1.728-1.179-1.958-1.629c-0.241-0.45-0.361-1.12-0.361-2.009
		c0-0.692,0.107-1.208,0.321-1.549c0.214-0.34,0.529-0.51,0.947-0.51c0.384,0,0.658,0.126,0.823,0.378
		c0.164,0.253,0.246,0.84,0.246,1.761v1.976h6.436V15.572z M69.831,8.56v19.637c0,1.328-0.063,2.17-0.189,2.526
		c-0.127,0.357-0.409,0.535-0.848,0.535c-0.384,0-0.639-0.162-0.765-0.485c-0.127-0.324-0.19-1.067-0.19-2.231V8.56H60.91v15.769
		c0,3.006,0.055,4.979,0.165,5.917c0.109,0.938,0.466,1.83,1.069,2.675c0.604,0.845,1.515,1.53,2.733,2.057
		c1.218,0.527,2.622,0.79,4.213,0.79c1.438,0,2.686-0.222,3.745-0.666c1.059-0.445,1.912-1.098,2.559-1.959
		c0.648-0.861,1.037-1.701,1.169-2.518c0.132-0.818,0.198-2.236,0.198-4.255V8.56H69.831z M44.94,8.56v26.649h11.144v-5.333h-4.214
		V8.56H44.94z M33.467,8.56v26.649H44.61v-5.333h-4.214V8.56H33.467z M23.619,25.695c0.18-2.359,0.624-6.09,1.33-11.193
		c0.352,4.444,0.704,8.175,1.055,11.193H23.619z M19.661,8.56l-3.535,26.649h7.164l0.417-4.79h2.479l0.371,4.79h7.082L29.676,8.56
		H19.661z M16.561,17.633c0-2.487-0.209-4.32-0.625-5.498c-0.418-1.178-1.29-2.162-2.618-2.951C11.991,8.395,10.306,8,8.265,8
		C6.762,8,5.431,8.256,4.273,8.766c-1.158,0.51-2.063,1.21-2.716,2.099c-0.653,0.889-1.045,1.813-1.177,2.773
		c-0.132,0.96-0.197,2.401-0.197,4.321v7.785c0,2.612,0.214,4.568,0.642,5.868c0.428,1.3,1.3,2.318,2.617,3.053
		c1.316,0.735,2.99,1.103,5.02,1.103c1.953,0,3.596-0.434,4.93-1.302c1.333-0.868,2.194-1.879,2.584-3.033
		c0.389-1.154,0.584-3.11,0.584-5.868v-1.039H9.63v3.35c0,1.463-0.079,2.392-0.238,2.788c-0.159,0.396-0.497,0.594-1.012,0.594
		c-0.538,0-0.884-0.197-1.037-0.592c-0.154-0.395-0.231-1.24-0.231-2.535V15.752c0-1.349,0.077-2.227,0.231-2.633
		c0.153-0.406,0.515-0.609,1.086-0.609c0.505,0,0.831,0.167,0.979,0.501s0.222,1.174,0.222,2.521v4.631h6.93V17.633z"/>
</g>
</svg>
