<?xml version="1.0" encoding="utf-8"?>
<!-- Generator: Adobe Illustrator 16.0.0, SVG Export Plug-In . SVG Version: 6.00 Build 0)  -->
<!DOCTYPE svg PUBLIC "-//W3C//DTD SVG 1.1//EN" "http://www.w3.org/Graphics/SVG/1.1/DTD/svg11.dtd">
<svg version="1.1" id="Layer_1" xmlns="http://www.w3.org/2000/svg" xmlns:xlink="http://www.w3.org/1999/xlink" x="0px" y="0px"
	 width="193px" height="65px" viewBox="0 0 193 65" enable-background="new 0 0 193 65" xml:space="preserve">
<rect y="-0.431" fill="#EE2D30" width="193.085" height="65.431"/>
<g>
	<g>
		<defs>
			<rect id="SVGID_1_" y="-0.431" width="193.085" height="65.431"/>
		</defs>
		<clipPath id="SVGID_2_">
			<use xlink:href="#SVGID_1_"  overflow="visible"/>
		</clipPath>
		<g clip-path="url(#SVGID_2_)">
			<text transform="matrix(1 0 0 1 12.5527 30.2119)" fill="#FFFFFF" font-family="'Impact'" font-size="28.2077">F</text>
			<text transform="matrix(1 0 0 1 23.2417 30.2119)" fill="#FFFFFF" font-family="'Impact'" font-size="28.2077">I</text>
			<text transform="matrix(1 0 0 1 30.8037 30.2119)" fill="#FFFFFF" font-family="'Impact'" font-size="28.2077">ND</text>
			<text transform="matrix(1 0 0 1 60.5977 30.2119)" fill="#FFFFFF" font-family="'Impact'" font-size="28.2077"> </text>
			<text transform="matrix(1 0 0 1 65.0068 30.2119)" fill="#FFFFFF" font-family="'Impact'" font-size="28.2077">U</text>
			<text transform="matrix(1 0 0 1 79.8965 30.2119)" fill="#FFFFFF" font-family="'Impact'" font-size="28.2077">S O</text>
			<text transform="matrix(1 0 0 1 113.1738 30.2119)" fill="#FFFFFF" font-family="'Impact'" font-size="28.2077">N </text>
		</g>
	</g>
	<g>
		<defs>
			<rect id="SVGID_3_" y="-0.431" width="193.085" height="65.431"/>
		</defs>
		<clipPath id="SVGID_4_">
			<use xlink:href="#SVGID_3_"  overflow="visible"/>
		</clipPath>
		<g clip-path="url(#SVGID_4_)">
			<text transform="matrix(1 0 0 1 12.5527 55.6836)" fill="#FFFFFF" font-family="'Impact'" font-size="28.2077">F</text>
		</g>
	</g>
	<g>
		<defs>
			<rect id="SVGID_5_" y="-0.431" width="193.085" height="65.431"/>
		</defs>
		<clipPath id="SVGID_6_">
			<use xlink:href="#SVGID_5_"  overflow="visible"/>
		</clipPath>
		<g clip-path="url(#SVGID_6_)">
			<text transform="matrix(1 0 0 1 22.6514 55.6836)" fill="#FFFFFF" font-family="'Impact'" font-size="28.2077">ACE</text>
			<text transform="matrix(1 0 0 1 63.7075 55.6836)" fill="#FFFFFF" font-family="'Impact'" font-size="28.2077">B</text>
		</g>
	</g>
	<g>
		<defs>
			<rect id="SVGID_7_" y="-0.431" width="193.085" height="65.431"/>
		</defs>
		<clipPath id="SVGID_8_">
			<use xlink:href="#SVGID_7_"  overflow="visible"/>
		</clipPath>
		<g clip-path="url(#SVGID_8_)">
			<text transform="matrix(1 0 0 1 77.6562 55.6836)" fill="#FFFFFF" font-family="'Impact'" font-size="28.2077">O</text>
			<text transform="matrix(1 0 0 1 92.5044 55.6836)" fill="#FFFFFF" font-family="'Impact'" font-size="28.2077">O</text>
		</g>
	</g>
	<g>
		<defs>
			<rect id="SVGID_9_" y="-0.431" width="193.085" height="65.431"/>
		</defs>
		<clipPath id="SVGID_10_">
			<use xlink:href="#SVGID_9_"  overflow="visible"/>
		</clipPath>
		<g clip-path="url(#SVGID_10_)">
			<text transform="matrix(1 0 0 1 107.3311 55.6836)" fill="#FFFFFF" font-family="'Impact'" font-size="28.2077">K</text>
		</g>
	</g>
	<g>
		<defs>
			<rect id="SVGID_11_" y="-0.431" width="193.085" height="65.431"/>
		</defs>
		<clipPath id="SVGID_12_">
			<use xlink:href="#SVGID_11_"  overflow="visible"/>
		</clipPath>
		<path clip-path="url(#SVGID_12_)" fill="#FFFFFF" d="M166.43,58.354V34.572h7.983l1.196-9.271h-9.18v-5.918
			c0-2.683,0.744-4.512,4.594-4.512l4.908-0.002V6.58c-0.85-0.113-3.764-0.365-7.152-0.365c-7.076,0-11.922,4.319-11.922,12.252
			v6.835h-8.004v9.271h8.004v23.782h9.572V58.354z"/>
	</g>
</g>
</svg>
