<svg xmlns="http://www.w3.org/2000/svg" xmlns:xlink="http://www.w3.org/1999/xlink" width="212.795" height="73.874" viewBox="0 0 212.795 73.874"><defs><path id="a" d="M-8.817 0h240.721v75.541H-8.817z"/></defs><clipPath id="b"><use xlink:href="#a" overflow="visible"/></clipPath><path clip-path="url(#b)" fill="#EE2D30" d="M200.645 48.104c0-1.554.194-2.508.583-2.862.389-.354.764-.531 1.124-.531.598 0 1.023.229 1.28.688s.386 1.43.386 2.915v6.099c0 1.235-.136 2.064-.405 2.488-.271.423-.698.634-1.281.634-.388 0-.768-.166-1.134-.499-.368-.333-.553-1.208-.553-2.623v-6.309zm-7.421 22.065c.659 1.389 1.742 2.465 3.248 3.228 1.505.763 3.445 1.145 5.818 1.145 1.915 0 3.601-.302 5.058-.905 1.457-.604 2.613-1.51 3.466-2.717.854-1.208 1.337-2.487 1.447-3.841.111-1.353.166-4.035.166-8.046v-4.684c0-3.705-.062-6.203-.187-7.494-.125-1.29-.583-2.522-1.374-3.694-.791-1.173-1.908-2.072-3.352-2.695-1.443-.625-3.289-.938-5.537-.938-1.818 0-3.414.271-4.788.812s-2.449 1.301-3.227 2.278c-.777.979-1.259 2.044-1.447 3.196-.187 1.152-.28 2.907-.28 5.266v2.687c0 1.983.159 3.559.479 4.725s1.069 2.165 2.248 2.998c1.18.832 2.54 1.249 4.08 1.249 1.235 0 2.269-.226 3.102-.677s1.457-1.127 1.874-2.03v5.371c0 1.263-.018 2.104-.052 2.52-.035.416-.19.756-.469 1.02s-.632.395-1.062.395c-.513 0-.919-.138-1.217-.415a1.574 1.574 0 0 1-.51-1.03c-.042-.409-.063-1.398-.063-2.967h-8.409c0 2.107.329 3.856.988 5.243m-21.849-29.997l-.354 16.987h8.326c0-.984.038-1.613.115-1.884.076-.271.246-.524.51-.76s.589-.354.979-.354c.61 0 1.048.229 1.311.688.265.458.396 1.318.396 2.581v6.682c-.028 2.346-.053 3.671-.073 3.977-.021.306-.16.59-.416.854-.257.264-.593.395-1.01.395-.902 0-1.43-.458-1.582-1.372-.153-.916-.229-2.465-.229-4.644V61.22h-8.41v1.832c0 3.136.348 5.454 1.041 6.952.694 1.498 1.866 2.627 3.519 3.383 1.65.757 3.56 1.135 5.725 1.135 1.929 0 3.563-.254 4.902-.76s2.383-1.235 3.133-2.187c.749-.95 1.238-1.983 1.467-3.101.229-1.117.345-2.87.345-5.257v-4.809c0-3.691-.594-6.186-1.78-7.483s-2.939-1.946-5.256-1.946c-2.055 0-3.733.77-5.038 2.31v-5.724h10.429v-5.393h-18.05zm-6.829 0c-2.11 2.724-5.197 4.522-9.264 5.397v3.929h.833c1.942 0 3.195.137 3.758.406.562.271.905.67 1.03 1.197.125.528.187 2.096.187 4.705v18.067h8.41V40.172h-4.954zm-30.062 0v6.059h8.316l-5.985 27.644h8.368l5.371-26.358v-7.344h-16.07zm-5.269 0c-2.11 2.724-5.197 4.522-9.263 5.397v3.929h.832c1.942 0 3.195.137 3.758.406.562.271.905.67 1.03 1.197.125.528.188 2.096.188 4.705v18.067h8.409V40.172h-4.954zm-25.189 0v6.059h8.316l-5.985 27.644h8.368l5.371-26.358v-7.344h-16.07zm-17.531 7.932c0-1.554.195-2.508.583-2.862.389-.354.763-.531 1.124-.531.597 0 1.024.229 1.281.688.256.458.385 1.43.385 2.915v6.099c0 1.235-.136 2.064-.406 2.488-.271.423-.698.634-1.281.634-.388 0-.766-.166-1.134-.499s-.552-1.208-.552-2.623v-6.309zm-7.422 22.065c.659 1.389 1.742 2.465 3.248 3.228 1.505.763 3.445 1.145 5.818 1.145 1.915 0 3.601-.302 5.058-.905 1.457-.604 2.613-1.51 3.466-2.717.854-1.208 1.336-2.487 1.447-3.841.11-1.353.167-4.035.167-8.046v-4.684c0-3.705-.063-6.203-.188-7.494-.125-1.29-.583-2.522-1.374-3.694-.791-1.173-1.908-2.072-3.351-2.695-1.444-.625-3.289-.938-5.537-.938-1.819 0-3.414.271-4.788.812s-2.45 1.301-3.227 2.278c-.777.979-1.259 2.044-1.447 3.196-.187 1.152-.281 2.907-.281 5.266v2.687c0 1.983.16 3.559.479 4.725s1.069 2.165 2.248 2.998c1.18.832 2.54 1.249 4.08 1.249 1.235 0 2.269-.226 3.102-.677.833-.451 1.457-1.127 1.874-2.03v5.371c0 1.263-.018 2.104-.052 2.52-.035.416-.191.756-.469 1.02-.278.264-.631.395-1.061.395-.514 0-.92-.138-1.218-.415a1.574 1.574 0 0 1-.51-1.03c-.042-.409-.063-1.398-.063-2.967h-8.41c0 2.107.331 3.856.989 5.243M67.299 68.13c4.719-6.98 7.56-11.547 8.525-13.697.965-2.151 1.447-4.191 1.447-6.12 0-2.54-.857-4.639-2.571-6.297-1.714-1.659-4.243-2.488-7.588-2.488-1.707 0-3.171.271-4.392.812a7.196 7.196 0 0 0-2.977 2.394c-.763 1.055-1.242 2.127-1.436 3.216-.195 1.09-.291 2.578-.291 4.465v1.229h7.535v-3.205c0-1.485.156-2.479.469-2.978.313-.5.789-.75 1.428-.75.639 0 1.115.227 1.428.678s.469 1.134.469 2.05c0 1.194-.517 2.855-1.551 4.986-1.034 2.13-4.292 7.678-9.773 16.643l-.005 4.808h18.506V68.13h-9.223zM45.42 48.104c0-1.554.194-2.508.583-2.862.388-.354.763-.531 1.124-.531.596 0 1.023.229 1.28.688.257.458.385 1.43.385 2.915v6.099c0 1.235-.135 2.064-.406 2.488-.27.423-.697.634-1.28.634-.389 0-.767-.166-1.135-.499-.367-.333-.551-1.208-.551-2.623v-6.309zM38 70.169c.659 1.389 1.741 2.465 3.247 3.228 1.506.763 3.445 1.145 5.818 1.145 1.915 0 3.602-.302 5.059-.905 1.457-.604 2.612-1.51 3.466-2.717.853-1.208 1.335-2.487 1.446-3.841.111-1.353.167-4.035.167-8.046v-4.684c0-3.705-.062-6.203-.187-7.494-.125-1.29-.583-2.522-1.374-3.694-.791-1.173-1.909-2.072-3.352-2.695-1.443-.625-3.289-.938-5.537-.938-1.818 0-3.414.271-4.788.812s-2.449 1.301-3.226 2.278c-.778.979-1.26 2.044-1.447 3.196s-.281 2.907-.281 5.266v2.687c0 1.983.159 3.559.479 4.725.319 1.166 1.068 2.165 2.248 2.998 1.179.832 2.539 1.249 4.08 1.249 1.235 0 2.269-.226 3.102-.677.832-.451 1.457-1.127 1.873-2.03v5.371c0 1.263-.017 2.104-.052 2.52-.035.416-.191.756-.468 1.02-.278.264-.632.395-1.062.395-.514 0-.919-.138-1.218-.415a1.583 1.583 0 0 1-.51-1.03c-.041-.409-.062-1.398-.062-2.967h-8.41c-.001 2.107.328 3.856.989 5.243M20.771 40.172v6.059h8.316l-5.984 27.644h8.368l5.371-26.358v-7.344H20.771zm-8.474 25.272c0 1.651-.097 2.713-.291 3.186-.195.472-.604.706-1.228.706-.625 0-1.031-.2-1.218-.603-.188-.403-.281-1.582-.281-3.539V48.749c0-1.734.1-2.842.302-3.319.201-.479.614-.72 1.238-.72.638 0 1.044.227 1.218.678.173.451.26 1.571.26 3.361v16.695zm8.025-19.443a7.794 7.794 0 0 0-1.468-3.143c-.721-.931-1.811-1.718-3.268-2.362-1.457-.646-3.109-.969-4.954-.969-2.262 0-4.188.465-5.777 1.395-1.589.931-2.651 2.166-3.185 3.705-.534 1.541-.8 3.858-.8 6.953v11.762c0 2.373.166 4.104.499 5.193.334 1.09.896 2.127 1.687 3.112.791.986 1.852 1.711 3.185 2.175 1.332.465 3.004.698 5.016.698 1.527 0 2.908-.222 4.143-.666s2.29-1.173 3.164-2.187c.874-1.013 1.45-2.103 1.728-3.268.277-1.166.416-3.026.416-5.579V51.58c0-2.553-.128-4.413-.386-5.579"/><path clip-path="url(#b)" fill="#FFF" d="M207.002 8.56v11.999L203.118 8.56h-5.794v26.649h5.794V23.094l3.604 12.115h6.073V8.56h-5.793zm-17.843 19.094c0 1.569-.066 2.562-.197 2.979-.132.417-.434.625-.906.625-.461 0-.754-.181-.88-.543-.127-.362-.189-1.317-.189-2.864V15.408c0-1.372.096-2.198.288-2.478.191-.279.469-.419.832-.419.428 0 .71.173.847.518.137.346.206 1.139.206 2.379v12.246zm6.929-8.05c0-2.743-.065-4.664-.198-5.761-.132-1.097-.543-2.112-1.233-3.045-.692-.933-1.605-1.632-2.741-2.099-1.136-.466-2.417-.699-3.843-.699-1.504 0-2.821.247-3.951.74-1.13.494-2.027 1.202-2.691 2.124a6.364 6.364 0 0 0-1.185 3.053c-.126 1.114-.189 3.01-.189 5.687v4.559c0 2.744.066 4.664.197 5.761.132 1.097.544 2.113 1.235 3.045.69.933 1.604 1.632 2.739 2.099 1.137.466 2.418.699 3.845.699 1.503 0 2.819-.247 3.95-.74 1.13-.494 2.026-1.202 2.69-2.124a6.37 6.37 0 0 0 1.186-3.053c.126-1.114.189-3.009.189-5.687v-4.559zM169.458 8.56c-.902 4.158-1.546 7.658-1.93 10.502-.127-1.8-.688-5.3-1.684-10.502h-6.364l4.871 17.003v9.646h6.42v-9.646l5.053-17.003h-6.366zm-16.223 17.135c.181-2.359.624-6.09 1.33-11.193.353 4.444.704 8.175 1.056 11.193h-2.386zM149.277 8.56l-3.534 26.649h7.164l.416-4.79h2.479l.372 4.79h7.082L159.292 8.56h-10.015zm-10.771 4.797c.275.16.45.409.527.749.077.341.115 1.114.115 2.321V26.78c0 1.778-.115 2.867-.346 3.267-.23.401-.845.601-1.844.601V13.12c.758 0 1.275.079 1.548.237m-8.475 21.851h8.739c1.656 0 2.897-.091 3.721-.272.823-.181 1.514-.499 2.074-.955.559-.455.95-1.086 1.176-1.893.225-.806.338-2.405.338-4.798v-9.332c0-2.524-.077-4.216-.231-5.078-.152-.861-.537-1.643-1.151-2.345-.614-.703-1.513-1.207-2.691-1.515-1.18-.307-3.443-.461-6.79-.461h-5.184v26.649zm-8.166-7.554c0 1.569-.066 2.562-.197 2.979-.132.417-.434.625-.905.625-.461 0-.755-.181-.881-.543-.126-.362-.188-1.317-.188-2.864V15.408c0-1.372.096-2.198.288-2.478.191-.279.469-.419.83-.419.429 0 .711.173.849.518.137.346.205 1.139.205 2.379v12.246zm6.929-8.05c0-2.743-.066-4.664-.198-5.761-.131-1.097-.543-2.112-1.233-3.045-.691-.933-1.605-1.632-2.741-2.099-1.135-.466-2.417-.699-3.843-.699-1.504 0-2.82.247-3.95.74-1.131.494-2.028 1.202-2.691 2.124a6.355 6.355 0 0 0-1.186 3.053c-.126 1.114-.189 3.01-.189 5.687v4.559c0 2.744.066 4.664.198 5.761.131 1.097.543 2.113 1.234 3.045.69.933 1.604 1.632 2.74 2.099 1.136.466 2.416.699 3.844.699 1.503 0 2.819-.247 3.949-.74 1.131-.494 2.027-1.202 2.691-2.124a6.39 6.39 0 0 0 1.187-3.053c.126-1.114.188-3.009.188-5.687v-4.559zM97.585 8.56v5.333h4.098v21.316h6.931V13.893h4.114V8.56H97.585zm-4.809 7.012c0-2.117-.206-3.618-.617-4.502-.412-.883-1.251-1.615-2.518-2.197C88.374 8.292 86.84 8 85.041 8c-1.646 0-3.051.266-4.214.798-1.163.532-2.005 1.27-2.526 2.214s-.782 2.436-.782 4.477c0 1.415.184 2.579.551 3.489.368.911.832 1.624 1.391 2.14.56.516 1.701 1.344 3.424 2.486 1.722 1.13 2.803 1.936 3.242 2.419.428.483.642 1.509.642 3.078 0 .713-.112 1.251-.337 1.613-.225.362-.568.543-1.029.543s-.782-.142-.963-.428c-.181-.285-.271-.927-.271-1.925v-3.243h-6.436v1.745c0 1.997.203 3.539.609 4.625.406 1.086 1.265 1.981 2.576 2.683 1.311.702 2.894 1.053 4.749 1.053 1.689 0 3.171-.304 4.444-.913 1.272-.609 2.131-1.364 2.576-2.264.444-.899.666-2.298.666-4.197 0-2.611-.4-4.504-1.201-5.678-.801-1.174-2.744-2.677-5.829-4.508-1.076-.635-1.728-1.179-1.958-1.629-.241-.45-.361-1.12-.361-2.009 0-.692.107-1.208.321-1.549.214-.34.529-.51.947-.51.384 0 .658.126.823.378.164.253.246.84.246 1.761v1.976h6.436v-1.053zM69.831 8.56v19.637c0 1.328-.063 2.17-.189 2.526-.127.357-.409.535-.848.535-.384 0-.639-.162-.765-.485-.127-.324-.19-1.067-.19-2.231V8.56H60.91v15.769c0 3.006.055 4.979.165 5.917.109.938.466 1.83 1.069 2.675.604.845 1.515 1.53 2.733 2.057 1.218.527 2.622.79 4.213.79 1.438 0 2.686-.222 3.745-.666 1.059-.445 1.912-1.098 2.559-1.959.648-.861 1.037-1.701 1.169-2.518.132-.818.198-2.236.198-4.255V8.56h-6.93zm-24.891 0v26.649h11.144v-5.333H51.87V8.56h-6.93zm-11.473 0v26.649H44.61v-5.333h-4.214V8.56h-6.929zm-9.848 17.135c.18-2.359.624-6.09 1.33-11.193.352 4.444.704 8.175 1.055 11.193h-2.385zM19.661 8.56l-3.535 26.649h7.164l.417-4.79h2.479l.371 4.79h7.082L29.676 8.56H19.661zm-3.1 9.073c0-2.487-.209-4.32-.625-5.498-.418-1.178-1.29-2.162-2.618-2.951C11.991 8.395 10.306 8 8.265 8c-1.503 0-2.834.256-3.992.766s-2.063 1.21-2.716 2.099C.904 11.754.512 12.678.38 13.638c-.132.96-.197 2.401-.197 4.321v7.785c0 2.612.214 4.568.642 5.868.428 1.3 1.3 2.318 2.617 3.053 1.316.735 2.99 1.103 5.02 1.103 1.953 0 3.596-.434 4.93-1.302 1.333-.868 2.194-1.879 2.584-3.033.389-1.154.584-3.11.584-5.868v-1.039H9.63v3.35c0 1.463-.079 2.392-.238 2.788-.159.396-.497.594-1.012.594-.538 0-.884-.197-1.037-.592-.154-.395-.231-1.24-.231-2.535V15.752c0-1.349.077-2.227.231-2.633.153-.406.515-.609 1.086-.609.505 0 .831.167.979.501s.222 1.174.222 2.521v4.631h6.93v-2.53z"/></svg>