<svg xmlns="http://www.w3.org/2000/svg" xmlns:xlink="http://www.w3.org/1999/xlink" width="193" height="65" viewBox="0 0 193 65"><path fill="#EE2D30" d="M0-.431h193.085V65H0z"/><defs><path id="a" d="M0-.431h193.085V65H0z"/></defs><clipPath id="b"><use xlink:href="#a" overflow="visible"/></clipPath><g clip-path="url(#b)" fill="#FFF" font-family="'Impact'" font-size="28.208"><text transform="translate(12.553 30.212)">F</text><text transform="translate(23.242 30.212)">I</text><text transform="translate(30.804 30.212)">ND</text><text transform="translate(60.598 30.212)"></text><text transform="translate(65.007 30.212)">U</text><text transform="translate(79.897 30.212)">S O</text><text transform="translate(113.174 30.212)">N</text></g><defs><path id="c" d="M0-.431h193.085V65H0z"/></defs><clipPath id="d"><use xlink:href="#c" overflow="visible"/></clipPath><g clip-path="url(#d)"><text transform="translate(12.553 55.684)" fill="#FFF" font-family="'Impact'" font-size="28.208">F</text></g><g><defs><path id="e" d="M0-.431h193.085V65H0z"/></defs><clipPath id="f"><use xlink:href="#e" overflow="visible"/></clipPath><g clip-path="url(#f)" fill="#FFF" font-family="'Impact'" font-size="28.208"><text transform="translate(22.651 55.684)">ACE</text><text transform="translate(63.708 55.684)">B</text></g></g><g><defs><path id="g" d="M0-.431h193.085V65H0z"/></defs><clipPath id="h"><use xlink:href="#g" overflow="visible"/></clipPath><g clip-path="url(#h)" fill="#FFF" font-family="'Impact'" font-size="28.208"><text transform="translate(77.656 55.684)">O</text><text transform="translate(92.504 55.684)">O</text></g></g><g><defs><path id="i" d="M0-.431h193.085V65H0z"/></defs><clipPath id="j"><use xlink:href="#i" overflow="visible"/></clipPath><g clip-path="url(#j)"><text transform="translate(107.331 55.684)" fill="#FFF" font-family="'Impact'" font-size="28.208">K</text></g></g><g><defs><path id="k" d="M0-.431h193.085V65H0z"/></defs><clipPath id="l"><use xlink:href="#k" overflow="visible"/></clipPath><path clip-path="url(#l)" fill="#FFF" d="M166.43 58.354V34.572h7.983l1.196-9.271h-9.18v-5.918c0-2.683.744-4.512 4.594-4.512l4.908-.002V6.58c-.85-.113-3.764-.365-7.152-.365-7.076 0-11.922 4.319-11.922 12.252v6.835h-8.004v9.271h8.004v23.782h9.572v-.001z"/></g></svg>