<svg xmlns="http://www.w3.org/2000/svg" xmlns:xlink="http://www.w3.org/1999/xlink" width="168.36" height="67.236" viewBox="0 0 168.36 67.236"><path fill="#FFF" d="M126.979 7.62h23.902v52.021h-23.902z"/><path fill="none" stroke="#000" stroke-width="1.576" d="M126.979 7.62h23.902v52.021h-23.902z"/><path fill="#FFF" d="M135.764.991v65.191l31.808-9.382V8.354z"/><defs><path id="a" d="M0 0h168.36v67.236H0z"/></defs><clipPath id="b"><use xlink:href="#a" overflow="visible"/></clipPath><path clip-path="url(#b)" fill="none" stroke="#000" stroke-width="1.576" d="M135.764.991v65.191l31.808-9.382V8.354z"/><path fill="none" stroke="#000" stroke-width="1.576" d="M139.808 29.722v10.295"/><path d="M138.048 29.722h3.52v7.258h-3.52z"/><g><defs><path id="c" d="M0 0h168.36v67.236H0z"/></defs><clipPath id="d"><use xlink:href="#c" overflow="visible"/></clipPath><path clip-path="url(#d)" fill="#D81F26" d="M107.906.377l5.634 9.057h.038V.377h2.779v13.5h-2.969l-5.615-9.038h-.038v9.038h-2.779V.377h2.95zM91.438 4.376a6.727 6.727 0 0 1 1.305-2.259A5.963 5.963 0 0 1 94.832.604c.825-.365 1.755-.548 2.789-.548 1.046 0 1.979.183 2.798.548.819.366 1.513.87 2.08 1.513s1.002 1.396 1.305 2.259c.303.864.453 1.8.453 2.808 0 .983-.15 1.9-.453 2.751s-.737 1.592-1.305 2.222c-.567.63-1.261 1.125-2.08 1.484s-1.752.539-2.798.539c-1.034 0-1.964-.18-2.789-.539a5.978 5.978 0 0 1-2.089-1.484c-.568-.63-1.002-1.371-1.305-2.222s-.454-1.768-.454-2.751a8.403 8.403 0 0 1 .454-2.808m2.712 4.462c.133.536.344 1.018.634 1.447.29.428.668.772 1.134 1.03.466.259 1.034.388 1.702.388s1.235-.129 1.702-.388a3.25 3.25 0 0 0 1.134-1.03c.29-.429.501-.911.633-1.447a6.834 6.834 0 0 0 .199-1.654c0-.592-.066-1.166-.199-1.721-.132-.554-.343-1.049-.633-1.484s-.668-.781-1.134-1.04c-.467-.258-1.034-.387-1.702-.387s-1.236.129-1.702.387c-.466.259-.844.605-1.134 1.04s-.501.93-.634 1.484a7.415 7.415 0 0 0-.198 1.721c0 .567.067 1.119.198 1.654M82.891 10.55c.164.315.381.57.652.765.271.196.589.341.955.435.366.095.744.142 1.135.142.265 0 .548-.022.851-.066s.587-.129.851-.255c.265-.126.485-.3.662-.52.176-.221.265-.501.265-.842 0-.365-.116-.662-.35-.888a2.785 2.785 0 0 0-.917-.568 9.26 9.26 0 0 0-1.286-.397 34.444 34.444 0 0 1-1.456-.378 12.81 12.81 0 0 1-1.474-.463c-.48-.183-.908-.419-1.286-.709s-.684-.653-.917-1.087c-.234-.435-.35-.961-.35-1.579 0-.693.148-1.295.444-1.806.296-.51.684-.936 1.163-1.276s1.021-.592 1.626-.756a6.91 6.91 0 0 1 1.815-.246c.706 0 1.384.079 2.032.236.649.158 1.227.413 1.73.766s.904.803 1.201 1.352c.296.548.443 1.213.443 1.995h-2.874c-.024-.404-.109-.738-.255-1.003a1.687 1.687 0 0 0-.577-.624 2.445 2.445 0 0 0-.821-.321 5.087 5.087 0 0 0-1.013-.094c-.239 0-.479.025-.718.075a1.94 1.94 0 0 0-.653.265 1.635 1.635 0 0 0-.482.473c-.126.189-.189.428-.189.718 0 .265.05.479.151.643s.3.315.596.454.706.277 1.229.416c.522.138 1.207.315 2.051.529.252.051.603.142 1.05.274.447.133.892.344 1.333.634s.822.677 1.145 1.162c.32.486.481 1.107.481 1.863 0 .618-.12 1.191-.358 1.72-.24.53-.597.987-1.069 1.371-.472.385-1.059.684-1.758.898-.7.215-1.51.322-2.43.322a8.573 8.573 0 0 1-2.166-.274 5.454 5.454 0 0 1-1.853-.861c-.536-.39-.961-.888-1.276-1.493s-.466-1.324-.454-2.156h2.874c.001.454.083.839.247 1.154M69.334 2.873V.377h11.061v2.496h-4.046v11.004h-2.968V2.873h-4.047zM67.236.377l5.048 13.5h-3.082l-1.021-3.006h-5.048l-1.059 3.006h-2.988l5.105-13.5h3.045zm.17 8.282l-1.702-4.954h-.038l-1.758 4.954h3.498zm-13.065 5.218l-2.288-9.189h-.038l-2.25 9.189h-3.006L43.185.377h2.969l2.136 9.189h.038L50.672.377h2.78l2.307 9.303h.037L58.009.377h2.911l-3.63 13.5h-2.949zM28.853.377l3.158 9.284h.037L35.036.377h4.178v13.5h-2.779V4.31h-.038l-3.309 9.567H30.8l-3.308-9.472h-.038v9.472h-2.78V.377h4.179zM11.155 4.376a6.761 6.761 0 0 1 1.305-2.259A5.973 5.973 0 0 1 14.549.604c.826-.365 1.755-.548 2.789-.548 1.046 0 1.979.183 2.799.548a5.99 5.99 0 0 1 2.079 1.513 6.727 6.727 0 0 1 1.305 2.259c.303.864.454 1.8.454 2.808 0 .983-.151 1.9-.454 2.751a6.548 6.548 0 0 1-1.305 2.222 5.994 5.994 0 0 1-2.079 1.484c-.82.359-1.753.539-2.799.539-1.034 0-1.963-.18-2.789-.539a5.978 5.978 0 0 1-2.089-1.484 6.58 6.58 0 0 1-1.305-2.222 8.168 8.168 0 0 1-.453-2.751c0-1.008.151-1.944.453-2.808m2.714 4.462c.132.536.343 1.018.633 1.447.29.428.668.772 1.135 1.03.466.259 1.033.388 1.701.388s1.235-.129 1.702-.388a3.25 3.25 0 0 0 1.134-1.03c.29-.429.501-.911.634-1.447a6.883 6.883 0 0 0 .198-1.654c0-.592-.066-1.166-.198-1.721a4.575 4.575 0 0 0-.634-1.484 3.22 3.22 0 0 0-1.134-1.04c-.467-.258-1.034-.387-1.702-.387s-1.235.129-1.701.387c-.467.259-.845.605-1.135 1.04s-.501.93-.633 1.484a7.361 7.361 0 0 0-.199 1.721c0 .567.066 1.119.199 1.654M0 2.873V.377h11.061v2.496H7.015v11.004H4.046V2.873H0z"/><path clip-path="url(#d)" fill="#FFF" d="M117.292 34.27c0-4.403-.37-7.648-1.107-9.733-.738-2.085-2.282-3.827-4.634-5.223-2.35-1.397-5.332-2.096-8.944-2.096-2.662 0-5.018.452-7.066 1.355-2.05.904-3.653 2.142-4.808 3.715-1.156 1.574-1.852 3.211-2.084 4.91-.233 1.7-.35 4.25-.35 7.648v13.783c0 4.623.378 8.086 1.137 10.389.758 2.302 2.302 4.104 4.633 5.404 2.331 1.302 5.293 1.952 8.887 1.952 3.458 0 6.367-.768 8.727-2.305 2.361-1.537 3.886-3.327 4.575-5.37.69-2.042 1.035-5.505 1.035-10.388v-1.838h-12.268v5.929c0 2.59-.142 4.235-.422 4.937-.282.701-.88 1.052-1.792 1.052-.952 0-1.564-.35-1.837-1.05-.271-.698-.407-2.194-.407-4.486V30.943c0-2.39.136-3.944.407-4.663.272-.718.913-1.078 1.924-1.078.893 0 1.472.296 1.733.887.263.592.394 2.08.394 4.463v8.2h12.268V34.27zM76.029 18.208l-.852 8.773c-.712 7.05-1.385 15.122-2.018 24.212-.643-8.995-1.717-19.99-3.22-32.985H57.001l7.088 47.176h18.634l6.243-47.176H76.029zm-28.384 8.801c.505.486.758 1.535.758 3.147v3.875c0 1.749-.219 2.899-.656 3.453s-1.219.831-2.345.831c-.253 0-.554-.011-.904-.029V26.28c1.593 0 2.642.243 3.147.729M32.231 65.384h12.267V46.385h3.293c2.681 0 4.852-.368 6.513-1.106 1.66-.738 2.801-1.797 3.423-3.176s.933-3.574.933-6.586v-4.108c0-2.953-.16-5.133-.481-6.542-.32-1.408-.932-2.608-1.836-3.598-.903-.991-2.253-1.749-4.05-2.273-1.797-.525-4.366-.787-7.707-.787H32.231v47.175zm-14.63-47.176v34.763c0 2.351-.112 3.842-.335 4.473-.224.632-.724.947-1.501.947-.68 0-1.132-.286-1.355-.859s-.335-1.889-.335-3.949V18.208H1.808v27.915c0 5.323.097 8.814.291 10.476.194 1.66.826 3.239 1.894 4.734 1.068 1.496 2.681 2.71 4.837 3.644 2.156.932 4.643 1.397 7.46 1.397 2.544 0 4.754-.393 6.629-1.18 1.874-.787 3.384-1.942 4.531-3.467 1.146-1.525 1.836-3.012 2.069-4.459.233-1.446.349-3.957.349-7.532V18.208H17.601z"/></g></svg>