<?xml version="1.0" encoding="utf-8"?>
<!-- Generator: Adobe Illustrator 16.0.0, SVG Export Plug-In . SVG Version: 6.00 Build 0)  -->
<!DOCTYPE svg PUBLIC "-//W3C//DTD SVG 1.1//EN" "http://www.w3.org/Graphics/SVG/1.1/DTD/svg11.dtd">
<svg version="1.1" id="Layer_1" xmlns="http://www.w3.org/2000/svg" xmlns:xlink="http://www.w3.org/1999/xlink" x="0px" y="0px"
	 width="168.36px" height="67.236px" viewBox="0 0 168.36 67.236" enable-background="new 0 0 168.36 67.236" xml:space="preserve">
<rect x="126.979" y="7.62" fill="#FFFFFF" width="23.902" height="52.021"/>
<rect x="126.979" y="7.62" fill="none" stroke="#000000" stroke-width="1.576" width="23.902" height="52.021"/>
<polygon fill="#FFFFFF" points="135.764,0.991 135.764,66.182 167.572,56.8 167.572,8.354 "/>
<g>
	<defs>
		<rect id="SVGID_1_" width="168.36" height="67.236"/>
	</defs>
	<clipPath id="SVGID_2_">
		<use xlink:href="#SVGID_1_"  overflow="visible"/>
	</clipPath>
	<polygon clip-path="url(#SVGID_2_)" fill="none" stroke="#000000" stroke-width="1.576" points="135.764,0.991 135.764,66.182 
		167.572,56.8 167.572,8.354 	"/>
</g>
<line fill="none" stroke="#000000" stroke-width="1.576" x1="139.808" y1="29.722" x2="139.808" y2="40.017"/>
<rect x="138.048" y="29.722" width="3.52" height="7.258"/>
<g>
	<defs>
		<rect id="SVGID_3_" width="168.36" height="67.236"/>
	</defs>
	<clipPath id="SVGID_4_">
		<use xlink:href="#SVGID_3_"  overflow="visible"/>
	</clipPath>
	<path clip-path="url(#SVGID_4_)" fill="#D81F26" d="M107.906,0.377l5.634,9.057h0.038V0.377h2.779v13.5h-2.969l-5.615-9.038h-0.038
		v9.038h-2.779v-13.5H107.906z M91.438,4.376c0.303-0.863,0.736-1.616,1.305-2.259c0.567-0.643,1.263-1.147,2.089-1.513
		c0.825-0.365,1.755-0.548,2.789-0.548c1.046,0,1.979,0.183,2.798,0.548c0.819,0.366,1.513,0.87,2.08,1.513s1.002,1.396,1.305,2.259
		c0.303,0.864,0.453,1.8,0.453,2.808c0,0.983-0.15,1.9-0.453,2.751s-0.737,1.592-1.305,2.222c-0.567,0.63-1.261,1.125-2.08,1.484
		s-1.752,0.539-2.798,0.539c-1.034,0-1.964-0.18-2.789-0.539c-0.826-0.359-1.521-0.854-2.089-1.484
		c-0.568-0.63-1.002-1.371-1.305-2.222s-0.454-1.768-0.454-2.751C90.983,6.176,91.135,5.24,91.438,4.376 M94.15,8.838
		c0.133,0.536,0.344,1.018,0.634,1.447c0.29,0.428,0.668,0.772,1.134,1.03c0.466,0.259,1.034,0.388,1.702,0.388
		s1.235-0.129,1.702-0.388c0.466-0.258,0.844-0.602,1.134-1.03c0.29-0.429,0.501-0.911,0.633-1.447
		c0.133-0.535,0.199-1.087,0.199-1.654c0-0.592-0.066-1.166-0.199-1.721c-0.132-0.554-0.343-1.049-0.633-1.484
		s-0.668-0.781-1.134-1.04c-0.467-0.258-1.034-0.387-1.702-0.387s-1.236,0.129-1.702,0.387c-0.466,0.259-0.844,0.605-1.134,1.04
		s-0.501,0.93-0.634,1.484c-0.132,0.555-0.198,1.129-0.198,1.721C93.952,7.751,94.019,8.303,94.15,8.838 M82.891,10.55
		c0.164,0.315,0.381,0.57,0.652,0.765c0.271,0.196,0.589,0.341,0.955,0.435c0.366,0.095,0.744,0.142,1.135,0.142
		c0.265,0,0.548-0.022,0.851-0.066s0.587-0.129,0.851-0.255c0.265-0.126,0.485-0.3,0.662-0.52c0.176-0.221,0.265-0.501,0.265-0.842
		c0-0.365-0.116-0.662-0.35-0.888c-0.233-0.227-0.539-0.416-0.917-0.568c-0.378-0.151-0.807-0.283-1.286-0.397
		c-0.479-0.113-0.964-0.239-1.456-0.378c-0.504-0.126-0.996-0.28-1.474-0.463c-0.48-0.183-0.908-0.419-1.286-0.709
		s-0.684-0.653-0.917-1.087c-0.234-0.435-0.35-0.961-0.35-1.579c0-0.693,0.148-1.295,0.444-1.806
		c0.296-0.51,0.684-0.936,1.163-1.276s1.021-0.592,1.626-0.756c0.605-0.164,1.21-0.246,1.815-0.246c0.706,0,1.384,0.079,2.032,0.236
		c0.649,0.158,1.227,0.413,1.73,0.766s0.904,0.803,1.201,1.352c0.296,0.548,0.443,1.213,0.443,1.995h-2.874
		c-0.024-0.404-0.109-0.738-0.255-1.003c-0.145-0.264-0.338-0.472-0.577-0.624c-0.239-0.151-0.514-0.258-0.821-0.321
		c-0.31-0.063-0.647-0.094-1.013-0.094c-0.239,0-0.479,0.025-0.718,0.075c-0.24,0.051-0.457,0.139-0.653,0.265
		c-0.195,0.126-0.356,0.283-0.482,0.473c-0.126,0.189-0.189,0.428-0.189,0.718c0,0.265,0.05,0.479,0.151,0.643
		s0.3,0.315,0.596,0.454c0.296,0.139,0.706,0.277,1.229,0.416c0.522,0.138,1.207,0.315,2.051,0.529
		c0.252,0.051,0.603,0.142,1.05,0.274c0.447,0.133,0.892,0.344,1.333,0.634s0.822,0.677,1.145,1.162
		c0.32,0.486,0.481,1.107,0.481,1.863c0,0.618-0.12,1.191-0.358,1.72c-0.24,0.53-0.597,0.987-1.069,1.371
		c-0.472,0.385-1.059,0.684-1.758,0.898c-0.7,0.215-1.51,0.322-2.43,0.322c-0.744,0-1.466-0.092-2.166-0.274
		c-0.699-0.183-1.317-0.47-1.853-0.861c-0.536-0.39-0.961-0.888-1.276-1.493s-0.466-1.324-0.454-2.156h2.874
		C82.645,9.85,82.727,10.235,82.891,10.55 M69.334,2.873V0.377h11.061v2.496h-4.046v11.004h-2.968V2.873H69.334z M67.236,0.377
		l5.048,13.5h-3.082l-1.021-3.006h-5.048l-1.059,3.006h-2.988l5.105-13.5H67.236z M67.406,8.659l-1.702-4.954h-0.038l-1.758,4.954
		H67.406z M54.341,13.877l-2.288-9.189h-0.038l-2.25,9.189h-3.006l-3.574-13.5h2.969l2.136,9.189h0.038l2.344-9.189h2.78
		l2.307,9.303h0.037l2.213-9.303h2.911l-3.63,13.5H54.341z M28.853,0.377l3.158,9.284h0.037l2.988-9.284h4.178v13.5h-2.779V4.31
		h-0.038l-3.309,9.567H30.8l-3.308-9.472h-0.038v9.472h-2.78v-13.5H28.853z M11.155,4.376c0.303-0.863,0.738-1.616,1.305-2.259
		c0.567-0.643,1.264-1.147,2.089-1.513c0.826-0.365,1.755-0.548,2.789-0.548c1.046,0,1.979,0.183,2.799,0.548
		c0.819,0.366,1.512,0.87,2.079,1.513c0.568,0.643,1.003,1.396,1.305,2.259c0.303,0.864,0.454,1.8,0.454,2.808
		c0,0.983-0.151,1.9-0.454,2.751c-0.302,0.851-0.737,1.592-1.305,2.222c-0.567,0.63-1.26,1.125-2.079,1.484
		c-0.82,0.359-1.753,0.539-2.799,0.539c-1.034,0-1.963-0.18-2.789-0.539c-0.825-0.359-1.522-0.854-2.089-1.484
		c-0.567-0.63-1.002-1.371-1.305-2.222c-0.302-0.851-0.453-1.768-0.453-2.751C10.702,6.176,10.853,5.24,11.155,4.376 M13.869,8.838
		c0.132,0.536,0.343,1.018,0.633,1.447c0.29,0.428,0.668,0.772,1.135,1.03c0.466,0.259,1.033,0.388,1.701,0.388
		s1.235-0.129,1.702-0.388c0.466-0.258,0.844-0.602,1.134-1.03c0.29-0.429,0.501-0.911,0.634-1.447
		c0.132-0.535,0.198-1.087,0.198-1.654c0-0.592-0.066-1.166-0.198-1.721c-0.133-0.554-0.344-1.049-0.634-1.484
		c-0.29-0.435-0.668-0.781-1.134-1.04c-0.467-0.258-1.034-0.387-1.702-0.387s-1.235,0.129-1.701,0.387
		c-0.467,0.259-0.845,0.605-1.135,1.04s-0.501,0.93-0.633,1.484c-0.133,0.555-0.199,1.129-0.199,1.721
		C13.67,7.751,13.736,8.303,13.869,8.838 M0,2.873V0.377h11.061v2.496H7.015v11.004H4.046V2.873H0z"/>
	<path clip-path="url(#SVGID_4_)" fill="#FFFFFF" d="M117.292,34.27c0-4.403-0.37-7.648-1.107-9.733
		c-0.738-2.085-2.282-3.827-4.634-5.223c-2.35-1.397-5.332-2.096-8.944-2.096c-2.662,0-5.018,0.452-7.066,1.355
		c-2.05,0.904-3.653,2.142-4.808,3.715c-1.156,1.574-1.852,3.211-2.084,4.91c-0.233,1.7-0.35,4.25-0.35,7.648v13.783
		c0,4.623,0.378,8.086,1.137,10.389c0.758,2.302,2.302,4.104,4.633,5.404c2.331,1.302,5.293,1.952,8.887,1.952
		c3.458,0,6.367-0.768,8.727-2.305c2.361-1.537,3.886-3.327,4.575-5.37c0.69-2.042,1.035-5.505,1.035-10.388v-1.838h-12.268v5.929
		c0,2.59-0.142,4.235-0.422,4.937c-0.282,0.701-0.88,1.052-1.792,1.052c-0.952,0-1.564-0.35-1.837-1.05
		c-0.271-0.698-0.407-2.194-0.407-4.486V30.943c0-2.39,0.136-3.944,0.407-4.663c0.272-0.718,0.913-1.078,1.924-1.078
		c0.893,0,1.472,0.296,1.733,0.887c0.263,0.592,0.394,2.08,0.394,4.463v8.2h12.268V34.27z M76.029,18.208l-0.852,8.773
		c-0.712,7.05-1.385,15.122-2.018,24.212c-0.643-8.995-1.717-19.99-3.22-32.985H57.001l7.088,47.176h18.634l6.243-47.176H76.029z
		 M47.645,27.009c0.505,0.486,0.758,1.535,0.758,3.147v3.875c0,1.749-0.219,2.899-0.656,3.453s-1.219,0.831-2.345,0.831
		c-0.253,0-0.554-0.011-0.904-0.029V26.28C46.091,26.28,47.14,26.523,47.645,27.009 M32.231,65.384h12.267V46.385h3.293
		c2.681,0,4.852-0.368,6.513-1.106c1.66-0.738,2.801-1.797,3.423-3.176s0.933-3.574,0.933-6.586v-4.108
		c0-2.953-0.16-5.133-0.481-6.542c-0.32-1.408-0.932-2.608-1.836-3.598c-0.903-0.991-2.253-1.749-4.05-2.273
		c-1.797-0.525-4.366-0.787-7.707-0.787H32.231V65.384z M17.601,18.208v34.763c0,2.351-0.112,3.842-0.335,4.473
		c-0.224,0.632-0.724,0.947-1.501,0.947c-0.68,0-1.132-0.286-1.355-0.859s-0.335-1.889-0.335-3.949V18.208H1.808v27.915
		c0,5.323,0.097,8.814,0.291,10.476c0.194,1.66,0.826,3.239,1.894,4.734c1.068,1.496,2.681,2.71,4.837,3.644
		c2.156,0.932,4.643,1.397,7.46,1.397c2.544,0,4.754-0.393,6.629-1.18c1.874-0.787,3.384-1.942,4.531-3.467
		c1.146-1.525,1.836-3.012,2.069-4.459c0.233-1.446,0.349-3.957,0.349-7.532V18.208H17.601z"/>
</g>
</svg>
